<svg version="1.1" xmlns="http://www.w3.org/2000/svg" viewBox="0 0 664.9829297762057 388.25" width="1329.9658595524113" height="776.5">
  <!-- svg-source:excalidraw -->
  
  <defs>
    <style class="style-fonts">
      @font-face {
        font-family: "Virgil";
        src: url("https://excalidraw.com/Virgil.woff2");
      }
      @font-face {
        font-family: "Cascadia";
        src: url("https://excalidraw.com/Cascadia.woff2");
      }
    </style>
  </defs>
  <g stroke-linecap="round" transform="translate(292.48292977620565 10) rotate(0 66.5 57.5)"><path d="M28.69 1.62 L108.66 -2.32 L123.9 4.94 L128.82 14.5 L136.17 30.64 L133.09 93.83 L124.55 110.47 L115.22 116.7 L100.4 112.86 L22.98 114.73 L5.77 106.3 L0.27 92.98 L-2.53 22.75 L3.55 6.39 L14.45 -0.23 L26.54 1.29" stroke="none" stroke-width="0" fill="#999"></path><path d="M28.75 0 M28.75 0 C42.55 4.55, 63.37 2.29, 104.25 0 M28.75 0 C52.5 1.94, 73.99 1.23, 104.25 0 M104.25 0 C123.37 -0.78, 132.54 9.72, 133 28.75 M104.25 0 C124.98 -0.91, 130.64 8, 133 28.75 M133 28.75 C135.32 44.23, 133.14 54, 133 86.25 M133 28.75 C133.58 46.91, 131.44 64.7, 133 86.25 M133 86.25 C132.19 107.08, 121.65 116.57, 104.25 115 M133 86.25 C131.28 107.67, 127.34 119.14, 104.25 115 M104.25 115 C77.51 114.34, 48.95 114.25, 28.75 115 M104.25 115 C74.52 117.92, 42.67 117.4, 28.75 115 M28.75 115 C5.83 114.54, -1.76 108.05, 0 86.25 M28.75 115 C8.33 114.89, -2.39 109.21, 0 86.25 M0 86.25 C-0.63 69.66, 2.55 56.64, 0 28.75 M0 86.25 C1.37 69.19, -0.93 47.65, 0 28.75 M0 28.75 C3.55 8.32, 12.22 -3.49, 28.75 0 M0 28.75 C-0.64 5.4, 13.32 -2.19, 28.75 0" stroke="#333" stroke-width="2" fill="none"></path></g><g transform="translate(312.23292977620565 42.5) rotate(0 46.75 25)"><text x="46.75" y="0" font-family="Virgil, Segoe UI Emoji" font-size="20px" fill="#333" text-anchor="middle" style="white-space: pre;" direction="ltr" dominant-baseline="text-before-edge">Signalling </text><text x="46.75" y="25" font-family="Virgil, Segoe UI Emoji" font-size="20px" fill="#333" text-anchor="middle" style="white-space: pre;" direction="ltr" dominant-baseline="text-before-edge">Server</text></g><g stroke-linecap="round" transform="translate(76.98292977620565 263.25) rotate(0 66.5 57.5)"><path d="M31.47 -3.99 L107.46 3.99 L124.55 9.83 L127.71 15.62 L129.37 32 L130.64 91.79 L122.11 110.55 L118.84 117.12 L100.64 118.81 L22.25 111.44 L10.9 110.8 L4.36 92.65 L-1.04 24.61 L6.57 5.15 L18.39 0.58 L28.92 1.34" stroke="none" stroke-width="0" fill="#999"></path><path d="M28.75 0 M28.75 0 C53.31 -1.09, 78.09 -1.36, 104.25 0 M28.75 0 C43.75 1.53, 61.36 0.02, 104.25 0 M104.25 0 C122.11 2.06, 136.75 9.85, 133 28.75 M104.25 0 C119.49 -0.56, 134.78 5.48, 133 28.75 M133 28.75 C129.76 52.13, 134.81 71.17, 133 86.25 M133 28.75 C131.94 42.47, 131.8 54.48, 133 86.25 M133 86.25 C131.03 109.32, 119.55 116.31, 104.25 115 M133 86.25 C135.36 103.45, 123.37 116.4, 104.25 115 M104.25 115 C89.75 112.75, 68.7 116.98, 28.75 115 M104.25 115 C81.07 115.28, 61.8 112.88, 28.75 115 M28.75 115 C13.35 112.52, -1.32 104.05, 0 86.25 M28.75 115 C12.54 119.52, -4.55 108.76, 0 86.25 M0 86.25 C-4.03 68.53, -1.18 46.81, 0 28.75 M0 86.25 C-1.05 68.31, -0.74 46.79, 0 28.75 M0 28.75 C-2.68 7.45, 12.93 -2.29, 28.75 0 M0 28.75 C-0.59 13.68, 13.5 -2.97, 28.75 0" stroke="#333" stroke-width="2" fill="none"></path></g><g transform="translate(99.29959542561971 308.25) rotate(0 44.18333435058594 12.5)"><text x="44.18333435058594" y="0" font-family="Virgil, Segoe UI Emoji" font-size="20px" fill="#333" text-anchor="middle" style="white-space: pre;" direction="ltr" dominant-baseline="text-before-edge">Socket A</text></g><g stroke-linecap="round" transform="translate(521.9829297762057 255.25) rotate(0 66.5 57.5)"><path d="M28.71 1.22 L107.82 -3.2 L121.9 9.36 L130.43 13.96 L136.46 28.04 L135.86 89.11 L122.05 111.31 L117.14 111.9 L108.02 112.52 L20.7 113.19 L9.76 111.74 L-3.51 95.9 L0.82 23.09 L6.38 3.47 L16.23 0.93 L24.88 1.33" stroke="none" stroke-width="0" fill="#999"></path><path d="M28.75 0 M28.75 0 C60.92 0.66, 85.91 -2.7, 104.25 0 M28.75 0 C47.11 2.65, 67.69 -0.43, 104.25 0 M104.25 0 C122.74 1.4, 132.68 11.68, 133 28.75 M104.25 0 C121.97 -1.15, 135.54 10.51, 133 28.75 M133 28.75 C135.92 43.53, 134.69 56.33, 133 86.25 M133 28.75 C133.77 43.71, 134.35 63.66, 133 86.25 M133 86.25 C135.98 103.7, 119.93 117, 104.25 115 M133 86.25 C136.17 101.16, 119.51 110.69, 104.25 115 M104.25 115 C80.33 118.89, 60.55 119.5, 28.75 115 M104.25 115 C82.55 115.55, 62.2 115.08, 28.75 115 M28.75 115 C6.62 111.03, 0.67 101.46, 0 86.25 M28.75 115 C8.71 117.28, 1.69 101.59, 0 86.25 M0 86.25 C-2.93 76.81, 3.47 60.89, 0 28.75 M0 86.25 C-0.22 74.39, 0.7 61.53, 0 28.75 M0 28.75 C3.43 5.92, 12.58 0.09, 28.75 0 M0 28.75 C-1.33 10.96, 7.42 4.14, 28.75 0" stroke="#333" stroke-width="2" fill="none"></path></g><g transform="translate(543.5995946626803 300.25) rotate(0 44.88333511352539 12.5)"><text x="44.88333511352539" y="0" font-family="Virgil, Segoe UI Emoji" font-size="20px" fill="#333" text-anchor="middle" style="white-space: pre;" direction="ltr" dominant-baseline="text-before-edge">Socket B</text></g><g stroke-linecap="round"><g transform="translate(123.48292977620576 254.75) rotate(0 78.53722490606651 -101.08757278732955)"><path d="M-2.38 0.17 C0 -27.12, -15.57 -132.17, 11.78 -165.92 C39.14 -199.68, 136.58 -196.49, 161.74 -202.34" stroke="#c92a2a" stroke-width="2.5" fill="none" stroke-dasharray="8 10"></path></g><g transform="translate(123.48292977620576 254.75) rotate(0 78.53722490606651 -101.08757278732955)"><path d="M135.03 -189.47 C140.8 -191.85, 147.33 -193.18, 164.56 -198.5" stroke="#c92a2a" stroke-width="2.5" fill="none"></path></g><g transform="translate(123.48292977620576 254.75) rotate(0 78.53722490606651 -101.08757278732955)"><path d="M132.86 -209.88 C138.77 -207.91, 145.75 -204.93, 164.56 -198.5" stroke="#c92a2a" stroke-width="2.5" fill="none"></path></g></g><mask></mask><g stroke-linecap="round"><g transform="translate(285.48292977620565 88.75) rotate(0 -64.92639110742016 85.28973967023194)"><path d="M1.9 -0.13 C-18.83 4.9, -100.61 1.11, -121.68 29.59 C-142.75 58.06, -124.17 147.36, -124.5 170.71" stroke="#e67700" stroke-width="2.5" fill="none" stroke-dasharray="8 10"></path></g><g transform="translate(285.48292977620565 88.75) rotate(0 -64.92639110742016 85.28973967023194)"><path d="M-137.46 146.88 C-130.08 156.26, -124.86 168.17, -123.5 169.69" stroke="#e67700" stroke-width="2.5" fill="none"></path></g><g transform="translate(285.48292977620565 88.75) rotate(0 -64.92639110742016 85.28973967023194)"><path d="M-117.03 145.02 C-117.73 155.41, -120.58 168.06, -123.5 169.69" stroke="#e67700" stroke-width="2.5" fill="none"></path></g></g><mask></mask><g stroke-linecap="round"><g transform="translate(213.48292977620565 320.75) rotate(0 152.37364461958407 -2.46736566238107)"><path d="M0.75 0.96 C51.29 0.4, 251.04 -4.65, 301.47 -5.9 M-2.3 -0.98 C49.34 -1.01, 256.38 -2.67, 307.04 -3.3" stroke="#5c940d" stroke-width="2" fill="none"></path></g><g transform="translate(213.48292977620565 320.75) rotate(0 152.37364461958407 -2.46736566238107)"><path d="M30.08 -12.1 C19.21 -6.76, 11.76 -7.42, -1.36 1.24 M28.32 -8.02 C18.6 -6.8, 9.23 -1.07, 2.55 2.35" stroke="#5c940d" stroke-width="2" fill="none"></path></g><g transform="translate(213.48292977620565 320.75) rotate(0 152.37364461958407 -2.46736566238107)"><path d="M30.53 8.41 C19.92 8.93, 12.37 3.44, -1.36 1.24 M28.78 12.5 C18.71 6.92, 9.18 5.86, 2.55 2.35" stroke="#5c940d" stroke-width="2" fill="none"></path></g><g transform="translate(213.48292977620565 320.75) rotate(0 152.37364461958407 -2.46736566238107)"><path d="M280.33 5.05 C283.05 5.05, 288.8 -0.65, 304.94 -3.03 M278.57 9.14 C287.21 3.22, 296.39 1.87, 308.85 -1.91" stroke="#5c940d" stroke-width="2" fill="none"></path></g><g transform="translate(213.48292977620565 320.75) rotate(0 152.37364461958407 -2.46736566238107)"><path d="M280.13 -15.47 C282.53 -10.64, 288.33 -11.51, 304.94 -3.03 M278.37 -11.38 C287.27 -10.5, 296.53 -5.06, 308.85 -1.91" stroke="#5c940d" stroke-width="2" fill="none"></path></g></g><mask></mask><g transform="translate(305.48292977620565 285.75) rotate(0 62.099998474121094 12.5)"><text x="0" y="0" font-family="Virgil, Segoe UI Emoji" font-size="20px" fill="#5c940d" text-anchor="start" style="white-space: pre;" direction="ltr" dominant-baseline="text-before-edge">3. Messaging</text></g><g transform="translate(10.55523255520552 138.40268898987057) rotate(358.6978556310133 49.900001525878906 25)"><text x="0" y="0" font-family="Virgil, Segoe UI Emoji" font-size="20px" fill="#c92a2a" text-anchor="start" style="white-space: pre;" direction="ltr" dominant-baseline="text-before-edge">1. Offer</text><text x="0" y="25" font-family="Virgil, Segoe UI Emoji" font-size="20px" fill="#c92a2a" text-anchor="start" style="white-space: pre;" direction="ltr" dominant-baseline="text-before-edge">Handshake</text></g><g stroke-linecap="round"><g transform="translate(431.48292977620565 40.75) rotate(0 93.12904084138574 100.93045453019441)"><path d="M0.74 -2.28 C27.5 1.65, 131.6 -9.99, 162.39 24.41 C193.19 58.81, 182.03 174.43, 185.52 204.14" stroke="#c92a2a" stroke-width="2.5" fill="none" stroke-dasharray="8 10"></path></g><g transform="translate(431.48292977620565 40.75) rotate(0 93.12904084138574 100.93045453019441)"><path d="M171.56 175.25 C182.34 187.04, 181.58 194.18, 182.18 201.95" stroke="#c92a2a" stroke-width="2.5" fill="none"></path></g><g transform="translate(431.48292977620565 40.75) rotate(0 93.12904084138574 100.93045453019441)"><path d="M192.08 174.93 C195.36 186.95, 187.11 194.2, 182.18 201.95" stroke="#c92a2a" stroke-width="2.5" fill="none"></path></g></g><mask></mask><g stroke-linecap="round"><g transform="translate(567.4829297762057 247.75) rotate(0 -67.72778829149905 -81.31496861591242)"><path d="M0.3 1.14 C-1.98 -23.48, 6.61 -119.3, -16.06 -146.51 C-38.74 -173.71, -115.94 -160.1, -135.75 -162.07" stroke="#e67700" stroke-width="2.5" fill="none" stroke-dasharray="8 10"></path></g><g transform="translate(567.4829297762057 247.75) rotate(0 -67.72778829149905 -81.31496861591242)"><path d="M-106.26 -173.27 C-111.62 -171.81, -121.26 -168.28, -131.95 -163.77" stroke="#e67700" stroke-width="2.5" fill="none"></path></g><g transform="translate(567.4829297762057 247.75) rotate(0 -67.72778829149905 -81.31496861591242)"><path d="M-105.65 -152.75 C-111.32 -155.69, -121.09 -156.56, -131.95 -163.77" stroke="#e67700" stroke-width="2.5" fill="none"></path></g></g><mask></mask><g transform="translate(456.43533154308045 151.9021817933767) rotate(0.1551144132367561 49.900001525878906 25)"><text x="0" y="0" font-family="Virgil, Segoe UI Emoji" font-size="20px" fill="#e67700" text-anchor="start" style="white-space: pre;" direction="ltr" dominant-baseline="text-before-edge">2. Accept</text><text x="0" y="25" font-family="Virgil, Segoe UI Emoji" font-size="20px" fill="#e67700" text-anchor="start" style="white-space: pre;" direction="ltr" dominant-baseline="text-before-edge">Handshake</text></g></svg>